# xmcd
#
# Track frame offsets: 
#        150
#        18744
#        44425
#        65092
#        84894
#        117190
#        147112
#        190655
#        216670
#        241726
#        257697
#
# Disc length: 3728 seconds
#
# Revision: 1
# Processed by: cddbd v1.5.1PL0 Copyright (c) Steve Scherf et al.
# Submitted via: ExactAudioCopy v0.95a4
#
DISCID=9b0e8e0b
DTITLE=Alan Haynes - Live at the Big Easy
DYEAR=2002
DGENRE=Blues
TTITLE0=Say Howdy
TTITLE1=Houston Blues
TTITLE2=About to Lose Your Clown
TTITLE3=Diving Duck
TTITLE4=Going Down Slow
TTITLE5=Mean Old World
TTITLE6=My Bleeding Heart
TTITLE7=Lonesome Blues
TTITLE8=I Wonder Why
TTITLE9=Sick and Tired
TTITLE10=Albert's Shuffle
EXTD=
EXTT0=
EXTT1=
EXTT2=
EXTT3=
EXTT4=
EXTT5=
EXTT6=
EXTT7=
EXTT8=
EXTT9=
EXTT10=
PLAYORDER=
